<?xml version="1.0" standalone="no"?>
<!DOCTYPE svg PUBLIC "-//W3C//DTD SVG 20010904//EN"
 "http://www.w3.org/TR/2001/REC-SVG-20010904/DTD/svg10.dtd">
<svg version="1.0" xmlns="http://www.w3.org/2000/svg"
 width="433.000000pt" height="433.000000pt" viewBox="0 0 433.000000 433.000000"
 preserveAspectRatio="xMidYMid meet">
<metadata>
Created by potrace 1.11, written by Peter Selinger 2001-2013
</metadata>
<g transform="translate(0.000000,433.000000) scale(0.100000,-0.100000)"
fill="#000000" stroke="none">
<path d="M455 4320 c-202 -41 -361 -184 -431 -390 -18 -53 -19 -120 -19 -1765
0 -1645 1 -1712 19 -1765 63 -186 190 -313 376 -376 53 -18 120 -19 1765 -19
1645 0 1712 1 1765 19 186 63 313 190 376 376 18 53 19 120 19 1765 0 1645 -1
1712 -19 1765 -31 93 -76 167 -138 230 -68 68 -120 101 -217 139 l-66 26
-1695 1 c-932 1 -1713 -2 -1735 -6z m3407 -101 c66 -14 142 -51 188 -90 l35
-30 -340 8 c-187 4 -603 8 -925 8 -322 0 -768 4 -992 9 -376 8 -408 8 -409 -7
-4 -54 0 -87 11 -87 6 0 10 9 10 20 0 24 -77 22 1005 21 441 0 722 3 710 9
-16 7 -13 9 18 9 27 1 36 -3 31 -11 -5 -8 -2 -9 12 -2 10 5 213 10 450 12
l432 3 27 -33 c35 -41 84 -144 92 -192 l6 -35 -149 -4 -149 -3 153 -2 152 -2
0 -1228 c0 -1216 0 -1227 -20 -1240 -11 -7 -20 -22 -20 -33 0 -17 -4 -20 -23
-15 -31 7 -67 -19 -67 -49 0 -24 23 -55 41 -55 5 0 9 -4 9 -10 0 -6 -38 -10
-92 -10 -92 0 -93 -1 -60 -16 17 -9 32 -22 32 -29 0 -7 9 -15 21 -18 12 -3 18
-10 14 -16 -3 -6 -2 -11 4 -11 10 0 61 -68 61 -81 0 -3 -36 -4 -80 -1 l-80 5
0 -31 c0 -17 6 -33 13 -36 10 -5 10 -7 -1 -12 -8 -4 -12 -31 -12 -84 l0 -78
81 -12 c45 -6 104 -8 130 -5 l49 7 0 -99 c-1 -202 -35 -313 -129 -413 -50 -53
-50 -53 -98 -47 -152 20 -379 47 -383 46 -7 -1 78 -26 165 -49 39 -10 95 -27
125 -38 l55 -19 -55 -18 c-47 -16 -102 -19 -396 -23 -323 -4 -346 -3 -418 17
-93 26 -90 26 -83 1 5 -20 0 -20 -306 -20 -177 0 -347 5 -392 11 -44 6 -117
17 -163 23 -88 13 -95 8 -22 -18 41 -14 -20 -15 -760 -15 -483 0 -833 3 -874
9 -38 6 -97 24 -131 40 -67 32 -171 122 -161 138 3 5 -1 12 -9 16 -17 6 -55
64 -55 84 0 19 129 15 260 -9 63 -11 122 -24 130 -29 8 -4 51 -10 95 -14 122
-10 162 -16 260 -43 188 -52 318 -73 329 -54 9 14 61 14 106 0 19 -6 57 -10
83 -9 46 1 66 3 172 16 28 3 65 15 83 25 39 22 52 18 52 -17 0 -26 40 -74 62
-74 26 0 88 27 110 47 19 17 41 22 118 26 52 3 111 10 131 16 53 16 104 53
107 79 3 22 2 22 -129 22 l-132 0 -40 -41 c-44 -45 -114 -95 -122 -87 -3 3 4
17 16 31 11 15 16 27 11 27 -5 0 -17 -11 -26 -25 -9 -14 -21 -25 -26 -25 -6 0
8 23 30 51 43 55 48 69 25 69 -8 0 -15 -6 -15 -14 0 -18 -59 -68 -71 -60 -17
10 -9 20 26 37 19 9 35 21 35 27 0 6 -205 10 -572 12 l-573 3 -77 38 c-87 42
-172 115 -216 185 -39 61 -72 163 -72 222 0 44 -3 49 -31 60 -48 20 -62 5 -76
-81 -6 -41 -12 -94 -12 -119 -1 -52 -19 -84 -62 -105 l-29 -16 0 229 c0 125 4
232 9 238 16 17 72 175 66 185 -4 5 -10 7 -15 4 -4 -3 -14 2 -21 11 -12 14 -9
20 21 46 33 27 39 29 93 23 48 -6 57 -5 57 9 0 9 -8 16 -20 16 -32 0 -100 31
-110 51 -13 24 3 64 31 79 12 7 39 10 60 8 48 -4 54 17 7 26 -18 4 -44 15 -58
25 -21 17 -23 23 -14 48 9 26 13 28 57 25 l47 -3 0 38 0 39 -39 -4 c-50 -5
-66 19 -56 84 l6 44 45 0 c24 0 44 4 44 9 0 5 -9 7 -21 4 -27 -7 -36 8 -31 50
3 29 7 34 28 31 13 -1 24 2 24 6 0 5 -15 10 -32 12 -27 2 -34 8 -36 30 -3 23
1 28 25 34 47 10 49 12 16 13 -18 1 -33 5 -33 10 0 5 -13 4 -30 -2 -35 -13
-55 -1 -44 27 5 14 14 17 40 13 30 -5 34 -3 34 17 0 12 6 30 13 41 13 17 15
17 31 -6 16 -23 17 -23 14 41 l-3 64 -41 12 c-57 16 -115 48 -142 77 -23 24
-24 31 -20 139 2 96 7 120 27 161 l25 47 78 0 c106 0 102 19 -4 22 l-83 2 83
3 82 4 0 125 c0 115 -1 125 -17 120 -95 -27 -168 -49 -179 -53 -11 -4 -14 11
-14 75 l0 81 53 26 c29 14 77 28 105 32 l52 6 0 119 c0 118 0 119 -21 107 -17
-9 -19 -13 -8 -20 10 -6 8 -9 -8 -9 -22 0 -22 0 -6 -35 16 -32 16 -37 1 -51
-15 -15 -18 -15 -39 5 -25 23 -39 27 -39 10 0 -8 -4 -9 -13 0 -17 13 -27 5
-27 -22 0 -13 -5 -17 -15 -13 -8 3 -19 -2 -24 -12 -9 -15 -10 -14 -11 6 0 12
6 31 12 42 10 15 10 22 0 32 -17 17 -16 137 1 144 19 7 21 64 2 64 -13 0 -15
27 -15 189 0 103 5 212 10 241 22 115 88 218 186 291 59 44 85 56 159 75 68
17 3325 20 3407 3z m-3693 -1120 c22 1 22 0 -8 -27 -65 -58 -61 -57 -61 -6 0
43 1 46 23 39 12 -4 33 -6 46 -6z m-15 -972 l25 -24 -16 -79 c-8 -43 -17 -80
-18 -82 -1 -1 -12 -4 -24 -7 -20 -4 -21 0 -21 56 0 37 6 69 15 83 14 21 14 24
0 29 -8 4 -15 14 -15 22 0 9 5 13 10 10 6 -3 10 -1 10 4 0 16 6 14 34 -12z
m64 -209 c-4 -30 -48 -39 -48 -10 0 24 8 32 32 32 14 0 19 -6 16 -22z m-107
-95 c-9 -15 -10 -12 -10 17 0 29 1 32 10 18 7 -12 7 -24 0 -35z m97 9 c3 -17
-2 -22 -17 -22 -14 0 -21 6 -21 18 0 38 33 41 38 4z m-101 -74 c-3 -7 -5 -2
-5 12 0 14 2 19 5 13 2 -7 2 -19 0 -25z m96 -14 c-8 -20 -33 -17 -33 4 0 10 3
22 7 25 10 11 32 -13 26 -29z m-6 -70 c-3 -3 -12 -4 -19 -1 -8 3 -5 6 6 6 11
1 17 -2 13 -5z m4029 -502 c-3 -2 -12 1 -21 8 -21 17 -19 70 3 86 15 11 17 8
20 -38 2 -28 1 -53 -2 -56z m-3836 -683 c0 -28 16 -42 73 -64 26 -10 47 -20
47 -22 0 -3 -7 -3 -15 1 -8 3 -15 2 -15 -3 0 -9 -55 -4 -85 8 -11 5 -45 16
-75 26 -119 39 -135 60 -50 68 112 9 120 8 120 -14z m155 -109 c3 -5 -3 -10
-14 -10 -11 0 -23 5 -26 10 -3 6 3 10 14 10 11 0 23 -4 26 -10z m575 -80 c12
-8 12 -10 -3 -16 -22 -8 -50 3 -42 16 8 12 25 13 45 0z m2880 -134 c0 -2 -7
-7 -16 -10 -8 -3 -12 -2 -9 4 6 10 25 14 25 6z"/>
<path d="M3880 3840 c0 -7 14 -8 38 -4 51 9 53 14 4 14 -23 0 -42 -5 -42 -10z"/>
<path d="M290 3558 c0 -7 5 -20 10 -28 8 -12 10 -9 10 13 0 15 -4 27 -10 27
-5 0 -10 -6 -10 -12z"/>
<path d="M268 3479 c-22 -12 -23 -33 -3 -53 14 -14 13 -17 -15 -31 -29 -15
-30 -15 -30 8 0 25 -17 47 -37 47 -19 0 -31 -31 -26 -68 4 -26 9 -31 23 -27
12 4 28 -4 44 -20 28 -28 46 -26 46 5 0 10 7 21 16 24 12 5 14 14 9 37 -5 22
-4 29 4 25 7 -5 11 5 11 28 0 38 -11 44 -42 25z"/>
<path d="M870 2930 l0 -240 83 0 c104 0 149 13 181 51 49 58 42 149 -14 191
l-29 21 19 28 c29 40 26 100 -6 138 -31 37 -77 51 -166 51 l-68 0 0 -240z
m164 134 c9 -8 16 -22 16 -30 0 -22 -38 -54 -65 -54 -23 0 -25 3 -25 50 0 49
1 50 29 50 16 0 37 -7 45 -16z m20 -185 c52 -41 23 -99 -51 -99 l-43 0 0 60 0
60 34 0 c19 0 45 -9 60 -21z"/>
<path d="M1260 2930 l0 -240 130 0 130 0 0 45 0 45 -85 0 -85 0 0 65 0 65 85
0 85 0 0 40 0 40 -85 0 -85 0 0 45 0 45 85 0 85 0 0 45 0 45 -130 0 -130 0 0
-240z"/>
<path d="M1600 2930 l0 -240 115 0 115 0 0 45 0 45 -70 0 -70 0 0 195 0 195
-45 0 -45 0 0 -240z"/>
<path d="M2041 3148 c-5 -13 -47 -121 -94 -240 l-85 -218 48 0 48 0 18 50 18
50 101 0 100 0 18 -50 c18 -50 18 -50 62 -50 25 0 45 3 45 8 0 4 -40 111 -89
237 l-89 230 -46 3 c-40 3 -47 0 -55 -20z m100 -220 l19 -48 -66 0 c-49 0 -65
3 -61 13 3 6 17 43 33 82 l28 69 14 -34 c8 -19 23 -56 33 -82z"/>
<path d="M2520 2993 c0 -98 -3 -188 -6 -200 -7 -27 -39 -30 -72 -8 -23 17 -47
10 -72 -20 -11 -13 -10 -19 6 -37 39 -43 117 -60 168 -36 56 25 61 45 64 271
l4 207 -46 0 -46 0 0 -177z"/>
<path d="M2866 3161 c-5 -7 -68 -167 -177 -448 -8 -22 -6 -23 39 -23 l48 0 18
50 18 51 101 -3 101 -3 17 -45 c16 -44 18 -45 63 -48 25 -2 46 -1 46 2 0 4
-154 406 -177 464 -6 14 -89 17 -97 3z m82 -203 l30 -78 -64 0 c-35 0 -64 1
-64 3 0 2 11 30 24 63 12 32 26 68 30 78 9 25 9 24 44 -66z"/>
<path d="M3220 2931 l0 -241 45 0 45 0 0 100 c0 55 4 100 8 100 4 0 31 -45 61
-100 l52 -100 50 0 49 0 -57 107 c-43 81 -53 108 -42 112 29 9 68 59 74 95 9
48 -17 118 -53 142 -20 14 -53 19 -129 22 l-103 4 0 -241z m184 133 c37 -36 2
-84 -61 -84 -33 0 -33 0 -33 50 l0 50 39 0 c23 0 46 -7 55 -16z"/>
<path d="M2772 2610 c-19 -12 -40 -37 -49 -57 -25 -61 -7 -99 92 -189 85 -77
100 -105 73 -132 -7 -7 -27 -12 -44 -12 -24 0 -39 8 -56 30 l-23 30 -38 -26
-38 -26 24 -31 c87 -115 277 -74 277 60 0 62 -17 88 -109 172 -45 40 -81 76
-81 79 1 39 59 46 96 11 l25 -23 31 32 c31 30 31 32 14 51 -46 51 -137 66
-194 31z"/>
<path d="M890 2380 l0 -240 98 0 c122 0 157 15 190 82 30 60 23 107 -25 154
l-34 34 20 27 c28 34 27 92 -1 128 -31 40 -77 55 -168 55 l-80 0 0 -240z m170
136 c18 -23 8 -59 -21 -75 -41 -23 -59 -9 -59 44 0 44 0 45 34 45 18 0 39 -7
46 -14z m32 -196 c23 -29 23 -45 -2 -70 -14 -14 -33 -20 -65 -20 l-45 0 0 61
0 62 47 -6 c32 -3 53 -12 65 -27z"/>
<path d="M1423 2603 c-4 -10 -44 -114 -90 -232 -46 -118 -83 -219 -83 -223 0
-5 21 -8 46 -6 45 3 47 4 63 48 l17 45 100 3 100 3 18 -51 18 -50 49 0 49 0
-13 33 c-8 17 -49 125 -93 239 l-79 208 -48 0 c-36 0 -49 -4 -54 -17z m87
-193 c16 -40 30 -74 30 -76 0 -2 -29 -4 -64 -4 l-64 0 31 79 c18 44 33 78 34
77 2 -1 16 -35 33 -76z"/>
<path d="M1780 2380 l0 -240 45 0 45 0 0 105 0 105 80 0 80 0 0 -105 0 -105
50 0 50 0 0 240 0 240 -50 0 -50 0 0 -90 0 -90 -80 0 -80 0 0 90 0 90 -45 0
-45 0 0 -240z"/>
<path d="M2297 2398 c-47 -123 -89 -231 -93 -240 -5 -16 0 -18 40 -18 47 0 47
0 68 50 l21 50 98 0 98 0 18 -50 18 -50 48 0 c35 0 48 4 44 13 -2 6 -44 114
-92 240 l-88 227 -47 0 -47 0 -86 -222z m163 20 c13 -35 25 -69 27 -75 4 -10
-11 -13 -57 -13 -46 0 -61 3 -57 13 2 6 14 40 27 75 12 34 26 62 30 62 4 0 18
-28 30 -62z"/>
<path d="M3227 2613 c-3 -4 -44 -109 -92 -233 -48 -124 -89 -228 -92 -232 -2
-5 18 -8 46 -8 l50 0 18 50 18 50 100 0 100 0 18 -50 c18 -50 18 -50 62 -50
30 0 45 4 44 13 0 6 -39 113 -87 237 l-87 225 -47 3 c-25 2 -48 -1 -51 -5z
m94 -235 l19 -48 -65 0 -65 0 21 53 c12 28 26 65 32 82 l11 30 14 -35 c8 -19
23 -56 33 -82z"/>
<path d="M183 2548 c-12 -6 -24 -17 -27 -24 -4 -11 -1 -12 14 -4 29 16 72 12
108 -10 37 -23 42 -13 9 18 -28 26 -74 35 -104 20z"/>
<path d="M207 2482 c-15 -3 -17 -12 -15 -45 3 -43 20 -56 55 -43 14 6 14 9 -1
31 -20 30 -20 35 -2 35 8 0 17 -10 19 -22 4 -16 5 -15 4 6 -2 30 -26 46 -60
38z"/>
<path d="M1680 2060 c-151 -70 -196 -254 -95 -386 78 -102 249 -125 352 -47
43 32 81 99 89 156 l7 47 -122 0 -121 0 0 -40 0 -40 65 0 c69 0 71 -1 55 -31
-16 -29 -64 -49 -120 -49 -62 0 -100 18 -137 67 -36 48 -40 135 -7 180 59 80
161 98 246 44 l46 -29 28 29 c27 28 27 29 8 50 -58 64 -208 89 -294 49z"/>
<path d="M2257 2066 c-96 -35 -161 -128 -161 -231 1 -174 160 -292 332 -245
82 22 162 122 162 203 l0 37 -120 0 -120 0 0 -40 0 -39 73 -3 72 -3 -37 -37
c-33 -35 -40 -38 -93 -38 -72 0 -120 22 -152 71 -49 75 -29 176 47 226 57 39
162 28 221 -23 13 -12 20 -9 48 20 l32 33 -35 27 c-71 54 -185 72 -269 42z"/>
<path d="M3296 2061 c-37 -25 -55 -57 -56 -100 0 -46 30 -91 103 -152 75 -63
90 -83 82 -110 -15 -46 -79 -44 -117 5 -17 21 -17 21 -52 2 -40 -22 -43 -32
-17 -63 83 -99 238 -78 271 38 18 62 -2 100 -95 185 -87 79 -100 105 -65 124
22 12 75 -9 82 -32 3 -8 17 -2 41 17 l36 29 -21 23 c-49 53 -139 69 -192 34z"/>
<path d="M860 1830 l0 -240 45 0 45 0 0 240 0 240 -45 0 -45 0 0 -240z"/>
<path d="M1060 1830 l0 -240 45 0 44 0 3 152 3 153 99 -153 99 -152 44 0 43 0
0 240 0 240 -45 0 -45 0 0 -157 -1 -158 -102 157 -102 157 -42 1 -43 0 0 -240z"/>
<path d="M2690 1830 l0 -240 40 0 40 0 0 100 c0 55 4 100 9 100 5 0 34 -45 63
-100 l53 -100 48 0 c26 0 47 2 47 4 0 1 -25 50 -56 107 -38 69 -52 105 -44
107 7 3 26 17 43 32 25 22 31 36 34 81 4 45 1 60 -19 89 -30 45 -72 59 -175
59 l-83 1 0 -240z m179 136 c7 -8 11 -27 9 -43 -2 -23 -10 -30 -39 -37 -56
-14 -69 -4 -69 49 l0 45 44 0 c26 0 48 -6 55 -14z"/>
<path d="M3060 1830 l0 -240 45 0 45 0 0 240 0 240 -45 0 -45 0 0 -240z"/>
<path d="M2403 1289 c-55 -20 -49 -70 13 -122 19 -16 34 -34 34 -42 0 -20 -26
-25 -49 -9 -22 16 -41 11 -41 -10 0 -37 76 -52 110 -21 32 29 25 63 -20 105
-48 45 -52 64 -11 55 33 -7 49 8 32 29 -16 19 -42 25 -68 15z"/>
<path d="M1236 1274 c-26 -26 -18 -54 29 -101 37 -36 44 -48 34 -59 -10 -13
-15 -12 -36 1 -19 13 -27 14 -39 4 -11 -9 -12 -15 -2 -26 32 -39 96 -35 118 7
16 29 5 55 -41 97 -48 45 -49 57 -5 49 38 -7 55 6 36 29 -16 20 -75 19 -94 -1z"/>
<path d="M1380 1180 l0 -110 55 0 c46 0 60 4 84 28 39 35 48 85 24 132 -22 43
-54 60 -115 60 l-48 0 0 -110z m108 54 c16 -11 22 -25 22 -54 0 -44 -20 -70
-56 -70 -23 0 -24 3 -24 70 0 77 11 87 58 54z"/>
<path d="M1680 1180 c0 -102 1 -110 19 -110 17 0 20 8 23 48 l3 47 30 -47 c21
-34 37 -48 53 -48 12 0 22 2 22 5 0 3 -16 27 -35 54 -19 26 -35 54 -35 61 0 7
14 29 30 50 36 45 37 50 8 50 -15 0 -32 -13 -48 -37 l-25 -37 -3 37 c-3 29 -7
37 -23 37 -18 0 -19 -8 -19 -110z"/>
<path d="M1860 1180 l0 -110 60 0 c53 0 60 2 60 19 0 16 -8 20 -37 23 -33 3
-38 6 -38 28 0 22 5 25 38 28 29 3 37 7 37 23 0 16 -7 19 -41 19 -33 0 -40 3
-37 18 2 12 14 18 41 20 29 3 37 7 37 23 0 17 -7 19 -60 19 l-60 0 0 -110z"/>
<path d="M2020 1180 l0 -110 50 0 c43 0 50 3 50 20 0 16 -7 20 -30 20 l-30 0
0 90 c0 83 -1 90 -20 90 -19 0 -20 -7 -20 -110z"/>
<path d="M2216 1281 c-10 -15 -76 -192 -76 -202 0 -20 37 -7 48 16 10 21 19
25 52 25 34 0 42 -4 50 -25 6 -15 17 -25 30 -25 24 0 24 -1 6 41 -7 19 -26 67
-40 107 -21 54 -32 72 -46 72 -10 0 -21 -4 -24 -9z m44 -108 c0 -7 -11 -13
-24 -13 -24 0 -24 2 -14 32 10 29 12 30 25 13 7 -11 13 -25 13 -32z"/>
<path d="M2626 1274 c-9 -23 -8 -24 14 -24 19 0 20 -7 20 -90 0 -83 1 -90 20
-90 19 0 20 7 20 110 l0 110 -34 0 c-22 0 -36 -6 -40 -16z"/>
<path d="M2932 1225 c-35 -72 -40 -115 -16 -139 39 -39 114 -11 114 43 0 32
-25 71 -46 71 -18 0 -18 4 1 41 9 16 13 34 10 39 -14 23 -33 6 -63 -55z m54
-80 c8 -20 -13 -45 -32 -38 -8 3 -14 16 -14 29 0 17 6 24 20 24 11 0 23 -7 26
-15z"/>
<path d="M2780 1149 c0 -17 5 -20 37 -17 27 2 39 8 41 21 3 14 -4 17 -37 17
-35 0 -41 -3 -41 -21z"/>
<path d="M300 1106 c0 -7 -7 -19 -15 -26 -21 -18 -19 -40 5 -40 17 0 20 7 20
40 0 22 -2 40 -5 40 -3 0 -5 -6 -5 -14z"/>
<path d="M1861 333 c-10 -26 -10 -27 4 -9 8 11 15 23 15 28 0 15 -7 8 -19 -19z"/>
<path d="M425 420 c-3 -5 -1 -10 4 -10 6 0 11 5 11 10 0 6 -2 10 -4 10 -3 0
-8 -4 -11 -10z"/>
</g>
</svg>
